<svg width="950" height="845" viewBox="0 0 950 845" fill="none" xmlns="http://www.w3.org/2000/svg">
<path d="M563.502 717.8C555.041 721.709 551.101 732.1 554.07 740.437C556.716 747.867 563.741 750.556 564.445 750.812C571.914 753.53 581.508 751.01 586.139 743.266C590.966 735.193 588.345 724.878 581.423 719.686C576.28 715.829 569.233 715.152 563.502 717.8Z" fill="#E9F3FD"/>
<path d="M554.07 677.241C562.559 677.555 571.048 677.87 579.537 678.184C579.465 646.205 580.05 613.169 581.423 579.146C583.849 519.056 588.488 462.052 594.628 408.424C578.593 408.738 562.559 409.053 546.524 409.367" fill="#E9F3FD"/>
<path d="M247.525 94.334C249.984 91.817 257.345 95.365 259.123 96.222C262.286 97.747 267.642 100.981 272.469 107.888C278.347 103.22 285.928 103.396 289.651 107.17C293.166 110.731 292.008 116.245 291.858 116.905C293.429 122.056 294.999 127.205 296.571 132.355C299.229 134.321 303.027 137.641 306.253 142.707C310.037 148.652 311.33 154.328 311.828 157.779C318.261 159.707 325.063 156.889 327.728 151.786C329.714 147.982 329.2 143.295 326.532 139.66C329.052 135.234 328.776 129.99 325.841 126.34C322.231 121.849 316.384 121.993 315.715 122.021C322.477 121.265 328.298 117.232 330.689 111.566C332.997 106.099 331.233 101.185 330.713 99.878C340.743 88.301 339.313 80.384 338.953 78.753C336.08 65.749 313.517 55.65 282.991 61.435C290.211 51.532 291.371 39.63 286.074 30.892C285.025 29.162 280.089 21.088 270.137 20.361C260.959 19.691 254.381 25.773 253.374 26.734C252.403 25.61 248.824 21.755 242.532 20.781C235.195 19.646 229.601 23.269 228.508 24.008C227.532 22.215 225.377 18.964 221.477 17.359C215.176 14.766 206.858 17.515 201.307 24.534C202.726 17.202 199.41 10.927 194.704 9.443C190.441 8.098 186.464 11.133 186.215 11.329C182.091 14.576 180.762 21.1 183.385 27.364C184.876 21.304 182.962 15.218 178.669 12.273C172.563 8.085 163.944 11.824 159.805 16.989C154.808 23.224 156.712 31.069 156.975 32.08C155.733 31.267 148.592 26.744 141.884 29.25C133.872 32.244 128.668 44.447 133.395 57.546C128.702 57.999 121.998 59.149 114.531 62.262C111.777 63.41 104.075 66.687 97.553 72.637C85.085 84.013 75.26 106.682 84.094 124.267C85.763 127.589 89.223 132.97 96.61 137.719C95.248 138.653 85.519 145.576 84.348 158.47C83.314 169.862 89.703 177.741 90.951 179.221C81.212 187.034 79.143 199.454 84.279 206.895C88.99 213.72 98.194 214.088 99.44 214.12C95.475 224.638 99.118 236.389 107.929 242.416C115.671 247.712 126.15 247.733 134.339 242.416C133.441 241.159 132.302 239.262 131.509 236.757C130.526 233.649 130.501 230.943 130.62 229.24C135.416 224.145 135.757 220.85 135.282 218.836C134.049 213.612 126.525 213.626 120.191 204.688C118.583 202.42 116.272 199.069 117.361 196.199C118.415 193.422 121.701 193.602 123.02 190.54C124.364 187.421 121.671 185.574 122.077 182.051C122.721 176.468 130.547 171.917 137.168 170.732C143.874 169.532 144.54 172.645 153.203 172.618C162.607 172.589 173.657 168.885 174.897 163.186C175.374 160.992 174.428 158.358 175.84 157.527C176.73 157.003 177.704 157.598 180.571 157.722C181.331 157.755 182.238 157.717 183.386 157.527C183.386 157.527 187.885 156.78 191.789 153.944C201.571 146.839 199.515 129.927 199.421 129.23C198.12 119.554 192.624 113.08 189.989 110.366C203.163 114.045 209.972 118.438 213.782 121.927C215.609 123.601 220.307 128.309 225.487 127.502C227.315 127.217 228.196 126.428 229.299 126.805C231.18 127.446 232.479 131.059 231.063 142.574C232.911 142.038 238.242 140.239 241.894 135.168C246.041 129.409 246.385 121.701 242.925 115.15C244.839 112.778 247.051 109.239 247.525 104.708C248.092 99.287 245.787 96.113 247.525 94.334Z" fill="#CFF0FF"/>
<path d="M137.169 249.022C134.65 250.576 134.726 259.685 140.942 264.113C145.505 267.364 151.825 266.987 156.033 263.17C143.714 249.898 139.014 247.883 137.169 249.022Z" fill="#CFF0FF"/>
<path d="M151.317 259.397C150.17 260.178 152.95 271.617 160.749 273.545C166.824 275.047 173.368 270.141 173.011 268.829C172.748 267.864 168.899 269.381 163.579 267.886C155.525 265.623 152.264 258.752 151.317 259.397Z" fill="#CFF0FF"/>
<path d="M214.512 558.396C212.719 558.844 203.954 560.842 192.061 563.856C181.441 566.547 172.632 568.933 166.408 570.658C174.062 588.767 181.636 607.635 189.045 627.251C197.719 650.216 205.548 672.573 212.625 694.219C236.912 694.505 286.559 691.27 329.584 657.434C338.485 650.434 345.957 643.025 352.221 635.74C364.168 613.732 376.116 591.723 388.063 569.715C405.984 536.702 423.905 503.69 441.826 470.677C412.684 488.444 387.618 500.601 370.142 508.406C314.903 533.076 265.476 545.662 214.512 558.396Z" fill="#E9F3FD"/>
<path d="M130.566 544.248C127.739 545.828 133.534 573.569 155.09 590.466C163.336 596.93 171.733 600.117 177.727 601.785C173.954 591.41 170.181 581.034 166.408 570.659C162.699 569.096 157.715 566.703 152.26 563.113C137.174 553.184 132.371 543.239 130.566 544.248Z" fill="#E9F3FD"/>
<path d="M130.566 709.311C139.441 706.516 157.702 699.432 173.906 682.04C187.129 667.847 193.157 653.042 195.914 644.494C188.62 650.782 173.551 662.006 151.396 666.76C136.546 669.947 123.844 669.082 115.475 667.809C120.505 681.643 125.536 695.477 130.566 709.311Z" fill="#E9F3FD"/>
<path d="M728.565 305.615C729.803 309.204 733.655 318.786 743.656 325.423C749.066 329.013 754.332 330.452 757.804 331.082C761.891 325.108 765.979 319.135 770.066 313.161C756.232 310.645 742.399 308.13 728.565 305.615Z" fill="#E9F3FD"/>
<path d="M297.987 148.569C295.67 149.904 288.947 153.371 280.066 152.342C268.244 150.972 261.536 142.67 260.258 141.023" stroke="#063573" stroke-width="3.7729"/>
<path d="M250.172 161.898C249.405 165.192 248.087 172.914 251.198 181.798C255.823 195.004 266.759 200.851 269.147 202.058C266.854 207.034 264.561 212.01 262.268 216.986" stroke="#063573" stroke-width="3.7729"/>
<path d="M201.779 188.184C202.408 193.843 203.037 199.503 203.665 205.162" stroke="#063573" stroke-width="3.7729"/>
<path d="M280.066 168.377C280.695 174.351 281.324 180.324 281.952 186.298" stroke="#063573" stroke-width="3.7729"/>
<path d="M203.665 162.717C200.844 166.125 195.915 171.218 188.42 175.351C179.852 180.075 171.901 181.356 167.283 181.749" stroke="#063573" stroke-width="3.7729"/>
<path d="M150.882 242.106C148.947 235.827 150.004 230.494 152.651 229.215C156.11 227.545 161.47 233.186 162.608 234.384C167.877 239.929 171.024 248.922 168.394 251.37C166.762 252.889 163.121 251.689 161.035 250.242C156.762 247.279 155.059 240.543 157.301 233.453" stroke="#063573" stroke-width="3.7729"/>
<path d="M142.454 216.02C139.14 217.833 133.215 221.785 131.623 228.462C128.486 241.62 144.786 254.415 149.309 257.965C161.711 267.7 175.247 269.642 182.739 270.021" stroke="#063573" stroke-width="3.7729"/>
<path d="M315.548 172.385C321.243 196.084 321.812 215.803 321.333 228.973C320.553 250.416 319.584 270.193 306.636 288.651C302.66 294.319 295.793 303.852 283.227 309.155C267.256 315.895 252.128 311.561 241.52 308.523C214.102 300.669 196.233 282.552 187.543 272.166" stroke="#063573" stroke-width="3.7729"/>
<path d="M301.221 294.873C304.598 303.342 307.975 311.812 311.352 320.281C313.914 326.706 316.476 333.131 319.038 339.556" stroke="#063573" stroke-width="3.7729"/>
<path d="M206.495 290.995C216.043 303.452 221.843 314.877 225.359 323.064C232.7 340.156 232.06 347.726 231.018 352.304C229.768 357.799 227.265 361.944 225.359 364.566" stroke="#063573" stroke-width="3.7729"/>
<path d="M190.059 107.679C191.109 108.559 203.219 119.043 201.741 134.5C201.421 137.845 199.824 148.113 190.801 154.094C182.821 159.383 174.39 157.768 172.371 157.381C170.652 157.052 161.415 155.282 160.864 150.8C160.409 147.099 165.962 142.26 169.686 143.221C174.656 144.503 178.065 156.553 174.817 163.515C170.692 172.356 154.624 175.567 135.054 170.231" stroke="#63C2E9" stroke-width="3.7729"/>
<path d="M134.245 175.629C128.669 175.594 123.8 178.32 122.17 182.475C119.023 190.492 129.202 200.592 132.913 199.515C135.085 198.885 136.359 194.043 134.726 191.684C132.055 187.828 120.5 189.007 118 194.292C115.896 198.739 119.688 207.185 129.092 212.209" stroke="#63C2E9" stroke-width="3.7729"/>
<path d="M192.681 54.847C195.446 52.744 203.409 47.313 213.818 48.45C229.002 50.108 240.741 64.797 241.418 78.062C241.506 79.786 242.026 89.993 235.74 93.527C229.137 97.239 217.746 92.057 216.874 85.818C216.172 80.797 222.224 74.679 228.054 74.252C237.937 73.529 249.979 88.959 248.295 102.737C247.285 110.997 241.09 120.723 232.9 121.061C227.883 121.268 221.735 117.967 221.043 113.604C220.173 108.118 228.024 101.566 234.276 102.235C242.722 103.138 250.281 117.436 246.46 127.84C244.216 133.95 238.724 136.875 236.634 137.851" stroke="#63C2E9" stroke-width="3.7729"/>
<path d="M296.596 114.954C296.828 113.238 297.592 106.338 293.758 102.885C286.705 96.533 269.047 106.309 269.564 111.517C269.874 114.645 276.895 117.689 279.172 115.809C282.188 113.319 278.639 100.735 270.438 93.906C265.139 89.493 259.217 88.582 256.376 88.343" stroke="#63C2E9" stroke-width="3.7729"/>
<path d="M297.515 62.801C300.818 61.053 308.962 57.368 318.849 59.371C330.621 61.757 345.334 72.305 344.2 85.818C343.292 96.642 332.517 105.786 322.495 105.643C317.43 105.571 310.729 103.1 310.136 99.401C309.332 94.387 319.649 86.472 326.622 88.765C334.424 91.331 339.42 107.128 332.495 115.871C328.331 121.128 320.473 123.058 312.712 120.713" stroke="#63C2E9" stroke-width="3.7729"/>
<path d="M328.629 123.505C329.158 124.127 334.895 131.077 332.515 138.202C331.378 141.607 328.006 146.196 324.545 145.442C321.384 144.753 318.738 139.735 320.2 137.02C321.069 135.406 323.388 134.611 325.31 134.983C330.354 135.96 335.55 145.543 332.297 152.506C330.32 156.739 325.552 159.292 320.222 159.352" stroke="#63C2E9" stroke-width="3.7729"/>
<path d="M288.562 55.201C289.285 54.267 298.476 41.967 293.454 27.864C292.908 26.33 287.86 12.805 276.051 11.448C265.356 10.22 255.214 19.673 254.499 29.181C253.957 36.381 258.785 44.112 261.29 43.736C263.855 43.351 265.524 34.235 263.365 26.662C261.614 20.521 256.719 13.191 249.216 10.98C234.877 6.755 218.846 23.529 220.851 31.429C221.92 35.644 228.527 38.923 232.009 37.134C238.55 33.773 238.293 10.35 228.494 6.042C222.997 3.625 214.711 8.074 208.754 15.944" stroke="#63C2E9" stroke-width="3.7729"/>
<path d="M125.535 57.25C114.628 52.358 107.235 53.713 103.808 54.744C81.225 61.537 66.725 97.139 78.739 120.589C83.302 129.495 90.782 134.824 96.491 137.881C94.711 137.324 86.003 134.793 79.415 139.613C70.955 145.802 71.842 159.833 76.073 168.362C78.333 172.918 81.525 175.857 83.672 177.517C81.435 178.466 75.419 181.403 72.994 187.867C69.411 197.417 76.098 208.176 83.125 213.275C87.525 216.468 92.046 217.432 94.785 217.764" stroke="#63C2E9" stroke-width="3.7729"/>
<path d="M92.122 225.935C91.878 227.327 90.034 238.891 97.602 247.105C105.162 255.31 119.014 256.807 130.094 249.381C127.726 256.088 129.538 263.511 134.526 267.922C140.448 273.16 147.936 271.577 148.741 271.393C148.955 272.429 150.33 278.597 155.837 281.764C161.452 284.993 169.052 283.775 174.267 278.477" stroke="#63C2E9" stroke-width="3.7729"/>
<path d="M202.442 17.445C202.461 9.361 198.465 3.064 194.45 2.354C189.819 1.534 182.659 7.705 182.112 18.443C181.804 19.568 179.923 26.601 181.85 27.686C183.626 28.687 188.877 24.763 188.969 20.786C189.112 14.566 176.717 4.795 166.304 8.5C158.912 11.13 155.266 19.573 155.517 26.002C155.663 29.753 157.207 34.658 159.011 34.763C160.92 34.875 163.857 29.648 162.527 26.253C160.272 20.5 144.401 16.539 136.193 24.568C130.957 29.689 129.814 38.735 133.31 47.042" stroke="#63C2E9" stroke-width="3.7729"/>
<path d="M308.557 313.272C303.803 317.199 293.953 324.115 279.952 325.694C251.167 328.939 230.725 306.707 228.409 304.106C237.07 308.255 244.674 310.445 250.179 311.672C259.174 313.677 265.959 315.19 274.46 313.16C281.566 311.463 286.669 308.056 289.44 306.172C294.834 302.503 298.578 298.473 300.97 295.482C303.499 301.411 306.028 307.342 308.557 313.272Z" fill="#063573"/>
<path d="M222.53 371.168C229.37 375.211 246.561 384.031 268.748 381.543C272.424 381.131 308.019 376.562 322.511 346.644C328.02 335.27 328.422 324.481 328.17 318.348" stroke="#063573" stroke-width="3.7729"/>
<path d="M203.319 378.714C209.979 383.643 226.966 394.836 251.612 396.635C259.015 397.175 290.825 398.599 317.008 375.884C344.412 352.11 344.281 320.435 344.173 315.518" stroke="#063573" stroke-width="3.7729"/>
<path d="M233.848 264.585C234.314 263.636 236.734 258.949 242.337 257.039C249.16 254.714 254.897 258.485 255.542 258.925" stroke="#063573" stroke-width="3.7729"/>
<path d="M193.258 382.487C182.027 386.811 160.945 394.905 133.898 405.124C97.196 418.992 88.285 422.124 78.563 430.591C63.288 443.893 57.459 460.389 50.392 491.9C39.396 540.935 45.639 560.517 33.288 610.745C28.869 628.717 23.761 643.076 20.209 652.247C40.408 656.044 58.659 659.15 74.538 661.679C120.198 668.952 131.376 669.09 142.953 667.338C156.432 665.298 173.182 660.282 191.246 648.474" stroke="#063573" stroke-width="3.7729"/>
<path d="M104.929 677.713C116.594 704.271 128.105 732.583 139.136 762.602C149.441 790.644 158.434 817.745 166.301 843.719" stroke="#063573" stroke-width="3.7729"/>
<path d="M118.807 531.515C123.193 537.433 129.696 544.941 138.929 552.266C148.959 560.223 158.738 565.206 166.094 568.301" stroke="#063573" stroke-width="3.7729"/>
<path d="M141.947 498.502C158.104 541.451 171.63 578.533 182.191 607.915C209.016 682.547 221.69 718.088 232.496 767.318C235.988 783.228 238.423 796.489 239.979 805.518" stroke="#063573" stroke-width="3.7729"/>
<path d="M176.155 564.527C194.561 560.955 222.27 555.179 255.637 546.606C306.832 533.452 342.673 523.907 384.92 502.747C408.449 490.962 426.796 479.141 438.998 470.678" stroke="#063573" stroke-width="3.7729"/>
<path d="M217.813 691.861C235.625 689.797 258.989 685.238 284.781 674.883C304.384 667.013 320.433 657.785 332.885 649.416" stroke="#063573" stroke-width="3.7729"/>
<path d="M347.977 313.632C349.31 313.334 352.107 312.7 355.611 311.838C384.948 304.624 395.031 293.813 425.113 286.102C428.305 285.284 430.136 284.814 432.392 284.392C448.004 281.471 475.744 282.355 515.398 314.103" stroke="#063573" stroke-width="3.7729"/>
<path d="M666.784 389.089C683.448 356.705 700.111 324.322 716.774 291.938" stroke="#063573" stroke-width="3.7729"/>
<path d="M765.822 322.121C756.476 339.61 750.171 372.194 741.77 396.163C730.52 428.262 726.207 447.065 717.718 470.205" stroke="#063573" stroke-width="3.7729"/>
<path d="M726.207 274.017C727.421 265.438 730.53 253.888 739.412 244.777C747.895 236.075 756.851 234.517 767.708 229.686C778.745 224.775 793.41 215.741 808.266 197.617C809.217 199.979 810.443 203.968 810.152 208.936C809.619 218.067 804.34 224.09 802.606 225.914" stroke="#063573" stroke-width="3.7729"/>
<path d="M772.424 241.947C785.752 237.499 796.833 234.957 804.493 233.458C818.361 230.744 821.649 230.913 833.733 227.799C845.573 224.748 844.542 223.88 861.086 219.31C874.097 215.716 882.358 214.147 892.212 215.537C895.851 216.05 898.786 216.837 900.701 217.423" stroke="#063573" stroke-width="3.7729"/>
<path d="M857.314 230.629C857.314 230.629 882.418 223.695 903.532 218.367C904.729 218.065 908.562 217.145 912.964 218.367C916.238 219.276 920.744 221.623 920.51 224.026C920.461 224.529 920.14 225.687 917.68 226.856" stroke="#063573" stroke-width="3.7729"/>
<path d="M836.563 237.231C836.866 241.427 836.836 246.952 835.62 253.266C833.933 262.024 830.649 268.742 828.074 273.074" stroke="#063573" stroke-width="3.7729"/>
<path d="M754.503 310.802C769.896 314.284 781.67 313.242 789.402 311.745C805.824 308.566 811.336 301.921 838.449 290.051C852.836 283.752 853.93 284.765 870.518 277.789C885.093 271.66 896.724 265.837 904.474 261.754C909.347 258.297 917.009 252.369 915.793 249.492C914.591 246.649 905.225 247.982 896.929 249.492C882.602 252.1 861.433 257.064 833.734 267.413" stroke="#063573" stroke-width="3.7729"/>
<path d="M846.938 244.777C861.224 241.808 875.69 238.668 890.326 235.345C899.858 233.181 909.291 230.979 918.622 228.742C923.307 228.461 927.227 230.011 928.054 232.515C928.937 235.189 926.044 238.193 923.338 241.004C919.881 244.594 916.232 246.563 913.906 247.607" stroke="#063573" stroke-width="3.7729"/>
<path d="M457.862 382.015C460.377 394.591 462.892 407.167 465.408 419.744" stroke="#063573" stroke-width="3.7729"/>
<path d="M555.013 680.071C555.013 680.071 545.581 637.626 542.751 540.475C539.921 443.324 546.524 409.368 546.524 409.368C546.524 409.368 562.559 404.652 594.628 405.595C594.628 405.595 575.764 613.102 579.537 680.071H567.275" stroke="#63C2E9" stroke-width="3.7729"/>
<path fill-rule="evenodd" clip-rule="evenodd" d="M572.332 713.479C566.143 712.95 560.081 720.58 557.798 726.802C555.452 733.193 554.705 744.601 562.642 749.815C569.692 754.445 579.974 751.815 584.444 746.182C592.637 735.854 582.182 714.321 572.332 713.479Z" stroke="#63C2E9" stroke-width="3.7729"/>
<path fill-rule="evenodd" clip-rule="evenodd" d="M230.582 830.709C341.555 637.756 452.529 444.804 563.502 251.851C680.235 443.996 796.968 636.141 913.701 828.286C685.995 829.094 458.288 829.901 230.582 830.709Z" stroke="#063573" stroke-width="3.7729" stroke-linecap="round" stroke-linejoin="round"/>
<path d="M2.289 754.585C2.746 756.637 5.48 768.015 16.437 774.393C17.857 775.219 31.843 783.059 43.79 775.336C55.08 768.037 58.691 750.661 53.222 745.153C50.339 742.249 44.344 742.066 41.432 744.681C37.433 748.272 39.608 756.807 42.375 761.659C48.673 772.702 63.637 774.477 66.899 774.864C94.75 778.168 117.152 749.056 119.719 745.624" stroke="#63C2E9" stroke-width="3.7729" stroke-linecap="round" stroke-linejoin="round"/>
<path d="M493.704 103.766C496.867 106.125 512.467 117.262 531.433 113.198C552.242 108.739 567.795 87.973 564.446 82.072C561.921 77.623 546.927 78.584 541.809 85.845C535.414 94.917 544.395 113.88 557.844 121.687C569.896 128.684 586.051 127.018 599.346 117.914" stroke="#63C2E9" stroke-width="3.7729" stroke-linecap="round" stroke-linejoin="round"/>
<path d="M947.711 544.976C942.646 545.417 915.837 548.058 902.923 562.226C894.156 571.844 892.995 585.458 898.88 587.084C904.345 588.594 918.78 580.568 920.79 571.401C922.889 561.83 910.79 553.987 900.719 551.031C884.185 546.178 861.055 550.959 844.106 563.419" stroke="#63C2E9" stroke-width="3.7729" stroke-linecap="round" stroke-linejoin="round"/>
</svg>
