<svg id="Layer_1" data-name="Layer 1" xmlns="http://www.w3.org/2000/svg" viewBox="0 0 1135.72 903.3"><defs><style>.cls-1{fill:#ebedfc;}.cls-2{fill:#dde1f2;}.cls-3{fill:#ffaa40;}.cls-4{fill:#494e6d;}.cls-5{fill:#e28f59;}.cls-6{fill:#fdab71;}.cls-7{fill:#b0b0d6;}.cls-8{fill:#eeedff;}.cls-9{fill:#c7c7e3;}.cls-10{fill:#39b580;}.cls-11{fill:#251138;}.cls-12{fill:#1c5276;}.cls-13{fill:#fb855f;}.cls-14{fill:#fd8b66;}.cls-15,.cls-17,.cls-19{fill:none;stroke-miterlimit:10;}.cls-15{stroke:#e56542;}.cls-16{fill:#e56542;}.cls-17{stroke:#251138;}.cls-17,.cls-19{stroke-width:2px;}.cls-18{fill:#8e3332;}.cls-19{stroke:#8e3332;}.cls-20{fill:#fff;}.cls-21{fill:#04d1cd;}</style></defs><path class="cls-1" d="M856.73,696.58,543.81,799.13a20.13,20.13,0,0,1-25.71-13.92L411,386.6l-18.76-69.87L353.21,171.26A20.12,20.12,0,0,1,370.7,146l165.51-16.12,200.64-19.51,2.68-.26A20.1,20.1,0,0,1,761,125.44c.07.26.13.51.18.77l99.76,501,9.23,46.32A20.14,20.14,0,0,1,856.73,696.58Z"/><path class="cls-2" d="M411,386.61,861,627.19l-99.76-501q-.08-.39-.18-.78l-24.19-15.06L536.21,129.9,392.28,316.74Z"/><circle class="cls-3" cx="397.98" cy="393.71" r="20.84"/><circle class="cls-4" cx="810.16" cy="499.07" r="21.73"/><circle class="cls-4" cx="552.85" cy="128.87" r="21.73"/><circle class="cls-3" cx="315.24" cy="487.59" r="14.55"/><circle class="cls-3" cx="740.51" cy="117.72" r="14.55"/><circle class="cls-3" cx="847.66" cy="425.29" r="14.55"/><path class="cls-5" d="M264.82,746.66h20.33a0,0,0,0,1,0,0v38.51A10.17,10.17,0,0,1,275,795.34h0a10.17,10.17,0,0,1-10.17-10.17V746.66A0,0,0,0,1,264.82,746.66Z"/><path class="cls-6" d="M322.45,746.66h20.33a0,0,0,0,1,0,0v38.51a10.17,10.17,0,0,1-10.17,10.17h0a10.17,10.17,0,0,1-10.17-10.17V746.66A0,0,0,0,1,322.45,746.66Z"/><path class="cls-5" d="M416.59,746.66h20.33a0,0,0,0,1,0,0v38.51a10.17,10.17,0,0,1-10.17,10.17h0a10.17,10.17,0,0,1-10.17-10.17V746.66A0,0,0,0,1,416.59,746.66Z"/><path class="cls-6" d="M485.05,746.66h20.33a0,0,0,0,1,0,0v38.51a10.17,10.17,0,0,1-10.17,10.17h0a10.17,10.17,0,0,1-10.17-10.17V746.66a0,0,0,0,1,0,0Z"/><polygon class="cls-7" points="497.29 779.94 412.25 779.94 412.25 660.4 422.11 645.3 497.29 645.3 497.29 779.94"/><path class="cls-7" d="M358.33,515h0a64.56,64.56,0,0,1,64.23,71l-10,99H319.8L296,596.27A64.56,64.56,0,0,1,358.33,515Z"/><path class="cls-8" d="M380,515h0a64.56,64.56,0,0,1,64.23,71l-10,99h-92.8l-23.82-88.77A64.56,64.56,0,0,1,380,515Z"/><rect class="cls-9" x="301.79" y="691.21" width="195.49" height="88.73"/><path class="cls-7" d="M337.53,779.94h-85V665.82a18.22,18.22,0,0,1,3-10l1.49-2.29a18.25,18.25,0,0,1,15.27-8.26h65.3Z"/><path class="cls-9" d="M334.45,645.3h0a16.64,16.64,0,0,1,16.64,16.64V773.08a6.86,6.86,0,0,1-6.86,6.86H327.45a9.63,9.63,0,0,1-9.63-9.63V661.94A16.64,16.64,0,0,1,334.45,645.3Z"/><path class="cls-9" d="M494.21,645.3h0a16.64,16.64,0,0,1,16.64,16.64V773.08a6.86,6.86,0,0,1-6.86,6.86H485.58a8,8,0,0,1-8-8v-110A16.64,16.64,0,0,1,494.21,645.3Z"/><rect class="cls-8" x="338.61" y="679.44" width="152.98" height="42.58" rx="21.29"/><circle class="cls-3" cx="834.03" cy="684.6" r="14.55"/><path class="cls-10" d="M838,676.54a.92.92,0,0,1-.89-.73c-5.8-29-2.7-63.53,7.91-87.89,9.27-21.29,13.63-49.64,10.84-70.55a.91.91,0,0,1,.78-1,.9.9,0,0,1,1,.78c2.83,21.21-1.58,50-11,71.52-10.47,24-13.53,58.11-7.8,86.8a.91.91,0,0,1-.71,1.07Z"/><path class="cls-10" d="M822.67,676.54l-.16,0a.9.9,0,0,1-.73-1.06c.73-4,1.58-7.86,2.4-11.59,3.63-16.45,6.77-30.65-2.3-46.7a99.67,99.67,0,0,0-5.64-8.61c-9.91-14-19.27-27.18-11.93-107.54a.91.91,0,0,1,1-.82.9.9,0,0,1,.82,1c-7.28,79.69,1.89,92.63,11.6,106.33a101.9,101.9,0,0,1,5.74,8.77c9.41,16.65,6.21,31.17,2.5,48-.82,3.72-1.67,7.56-2.4,11.53A.91.91,0,0,1,822.67,676.54Z"/><path class="cls-10" d="M862.72,586.9c-7.26-9.49-27.1,17.76-25.51,30C837.21,616.93,870,596.44,862.72,586.9Z"/><path class="cls-10" d="M882.16,522c-7.26-9.48-27.11,17.77-25.52,30C856.64,552.06,889.46,531.57,882.16,522Z"/><path class="cls-10" d="M827.62,523.85c-7.26-9.49-27.11,17.76-25.52,30C802.1,553.88,834.92,533.39,827.62,523.85Z"/><path class="cls-10" d="M828.78,579.31c-11.28-3.95-12.92,29.73-4.86,39.11C823.92,618.42,840.12,583.28,828.78,579.31Z"/><path class="cls-10" d="M820.54,480.88c-9.52-7.22-21.41,24.33-16.62,35.73C803.92,516.61,830.11,488.13,820.54,480.88Z"/><path class="cls-10" d="M844.18,502.53c10.3-6,18.39,26.69,12.28,37.44C856.46,540,833.81,508.61,844.18,502.53Z"/><path class="cls-10" d="M839.14,550.18c11.11-4.39,14.09,29.18,6.41,38.88C845.55,589.06,828,554.59,839.14,550.18Z"/><path class="cls-10" d="M781.68,558.42c7.49-9.3,26.68,18.42,24.79,30.64C806.47,589.06,774.15,567.78,781.68,558.42Z"/><path class="cls-10" d="M785,498.49c9.26-7.54,22.27,23.56,17.88,35.12C802.83,533.61,775.64,506.08,785,498.49Z"/><path class="cls-9" d="M829.63,795h0a34,34,0,0,1-33.7-38.66l11.6-84a90.08,90.08,0,0,0-5.82-38h0a3.87,3.87,0,0,1,3.61-5.25H854a3.87,3.87,0,0,1,3.61,5.25h0a89.92,89.92,0,0,0-5.82,38l11.59,84A34,34,0,0,1,829.63,795Z"/><circle class="cls-7" cx="361.35" cy="581.92" r="4.63"/><circle class="cls-7" cx="408.08" cy="581.5" r="4.63"/><circle class="cls-7" cx="363.45" cy="637.5" r="4.63"/><circle class="cls-7" cx="410.19" cy="637.08" r="4.63"/><path class="cls-7" d="M792.08,183.66a19.91,19.91,0,0,1,10.48-1.13,69.35,69.35,0,0,1,11.66,3.18c6.92,2.33,14.91,5.35,22.15,2.55,5-1.92,8.42-6,10.93-10.55,1.55-2.82-2.77-5.35-4.32-2.52a23.62,23.62,0,0,1-4,5.52,11.19,11.19,0,0,1-1.85,1.56,12.58,12.58,0,0,1-1.11.67c-.19.11-.38.2-.56.29s-.83.36-.43.21a11.6,11.6,0,0,1-4.44.91,18.94,18.94,0,0,1-4.72-.42c-7.63-1.51-14.67-5.19-22.4-6.28a25,25,0,0,0-13.92,1.69,2.52,2.52,0,0,0-.9,3.42,2.56,2.56,0,0,0,3.42.9Z"/><path class="cls-7" d="M799.66,166a4.32,4.32,0,0,1,1.25-.52c.28-.08.55-.15.83-.21l.48-.09c.42-.06-.58,0,.17,0a16.26,16.26,0,0,1,1.71,0,7.69,7.69,0,0,1,1.44.17,45.19,45.19,0,0,1,7.53,2.32c4.9,1.81,10.44,3.85,15.65,2.07,3.67-1.26,6.36-4,8.47-7.14,1.79-2.69-2.54-5.19-4.32-2.52a15.07,15.07,0,0,1-3,3.47,12.54,12.54,0,0,1-1.23.81,5.45,5.45,0,0,1-1.44.63,11.53,11.53,0,0,1-6.3,0c-5-1.2-9.61-3.8-14.73-4.55a14.29,14.29,0,0,0-9,1.3c-2.85,1.49-.33,5.81,2.52,4.32Z"/><path class="cls-7" d="M262.36,420.32a19.79,19.79,0,0,1,10.48-1.12,69.58,69.58,0,0,1,11.66,3.17c6.91,2.33,14.91,5.35,22.14,2.55,5-1.92,8.43-6,10.93-10.55,1.55-2.82-2.76-5.34-4.31-2.52a24,24,0,0,1-4,5.53,11.66,11.66,0,0,1-1.86,1.55c-.36.24-.73.47-1.11.68l-.56.29c-.08,0-.82.36-.42.2a11.6,11.6,0,0,1-4.44.91,19,19,0,0,1-4.73-.42c-7.63-1.5-14.66-5.18-22.4-6.27A25,25,0,0,0,259.84,416a2.51,2.51,0,0,0-.9,3.42,2.55,2.55,0,0,0,3.42.9Z"/><path class="cls-7" d="M269.94,402.64a4.21,4.21,0,0,1,1.25-.52c.27-.08.55-.15.83-.21l.47-.08c.43-.07-.57,0,.18,0a16.07,16.07,0,0,1,1.7,0,7.81,7.81,0,0,1,1.45.17,45.19,45.19,0,0,1,7.53,2.32c4.9,1.81,10.44,3.85,15.65,2.07,3.67-1.26,6.36-4,8.47-7.14,1.78-2.68-2.55-5.19-4.32-2.52a15.3,15.3,0,0,1-3,3.47,11.58,11.58,0,0,1-1.24.82,5.4,5.4,0,0,1-1.43.63,11.63,11.63,0,0,1-6.3,0c-5-1.2-9.61-3.79-14.73-4.55a14.35,14.35,0,0,0-9,1.3c-2.86,1.49-.33,5.81,2.52,4.32Z"/><path class="cls-7" d="M756.66,393.9a19.8,19.8,0,0,1,10.48-1.12A68.64,68.64,0,0,1,778.8,396c6.92,2.33,14.91,5.35,22.15,2.55,4.95-1.92,8.42-6,10.92-10.55,1.56-2.82-2.76-5.34-4.31-2.52a23.89,23.89,0,0,1-4,5.53,11.24,11.24,0,0,1-1.86,1.55c-.36.24-.73.47-1.1.67l-.57.3c-.08,0-.82.36-.42.2a11.6,11.6,0,0,1-4.44.91,19,19,0,0,1-4.73-.42c-7.62-1.5-14.66-5.18-22.4-6.27a25,25,0,0,0-13.91,1.68,2.51,2.51,0,0,0-.9,3.42,2.55,2.55,0,0,0,3.42.9Z"/><path class="cls-7" d="M764.24,376.22a4.32,4.32,0,0,1,1.25-.52c.27-.08.55-.15.83-.21l.47-.08c.43-.07-.57,0,.18,0a16.23,16.23,0,0,1,1.71,0,7.8,7.8,0,0,1,1.44.17,45.19,45.19,0,0,1,7.53,2.32c4.9,1.81,10.44,3.85,15.65,2.07,3.67-1.26,6.36-4,8.47-7.14,1.78-2.68-2.54-5.19-4.32-2.52a15.07,15.07,0,0,1-3.05,3.47,11.58,11.58,0,0,1-1.24.82,5.4,5.4,0,0,1-1.43.63,11.63,11.63,0,0,1-6.3,0c-5-1.2-9.61-3.79-14.73-4.55a14.28,14.28,0,0,0-9,1.3c-2.86,1.49-.33,5.81,2.52,4.32Z"/><path class="cls-7" d="M385.35,151.13A19.67,19.67,0,0,1,395.82,150a68.17,68.17,0,0,1,11.66,3.18c6.92,2.33,14.92,5.35,22.15,2.54,4.95-1.91,8.42-6,10.93-10.54,1.55-2.82-2.77-5.35-4.32-2.53a23.39,23.39,0,0,1-4,5.53,11.11,11.11,0,0,1-1.85,1.55,12.69,12.69,0,0,1-1.11.68l-.56.29c-.08,0-.82.36-.43.2a11.35,11.35,0,0,1-4.43.92,19.49,19.49,0,0,1-4.73-.43c-7.63-1.5-14.67-5.18-22.4-6.27a24.94,24.94,0,0,0-13.92,1.69,2.52,2.52,0,0,0-.89,3.42,2.57,2.57,0,0,0,3.42.9Z"/><path class="cls-7" d="M392.93,133.44a4.17,4.17,0,0,1,1.25-.51c.27-.08.55-.15.82-.21l.48-.09c.43-.07-.58,0,.18,0a16.07,16.07,0,0,1,1.7,0,7.11,7.11,0,0,1,1.45.16,46.19,46.19,0,0,1,7.53,2.33c4.9,1.81,10.43,3.85,15.65,2.06,3.66-1.25,6.36-4,8.46-7.13,1.79-2.69-2.54-5.2-4.31-2.53a15.09,15.09,0,0,1-3.05,3.47,11.1,11.1,0,0,1-1.24.82,5.4,5.4,0,0,1-1.43.63,11.53,11.53,0,0,1-6.3,0c-5-1.19-9.61-3.79-14.73-4.55a14.38,14.38,0,0,0-9,1.3c-2.85,1.49-.33,5.81,2.53,4.32Z"/><path class="cls-11" d="M604.43,339.87c-8.95-19.69,3.77-23.6,7.48-36.81s3.55-28.73,7.53-35.55,8.15-5.36,12.89-5.23c3.37-4.13,2.07-7.91,9.73-9.95s18-1.91,24.06,9.4,4.46,20.47,3.54,36.7,9.87,22.87,10.77,40.92,15.94,41.11,20.94,64.19-3,48.73-29.8,43.09S613.38,359.56,604.43,339.87Z"/><path class="cls-12" d="M808.08,661.32c-2.3,10.15-4.59,30.65-7,42.72-.63,3.13,2.05,6,3.35,6.7s.28.18.28.18c3.56.49,6.08.49,7.61-3.56,7.08-18.83,14.1-38.67,21.17-57.76-6.3-2.27-12.61-4.05-18.89-6.56C812.33,651.24,810.37,651.17,808.08,661.32Z"/><path class="cls-13" d="M819.44,655.75h0c-1.79,4.9-6.23,6.81-11.42,5.12-3.79-1.24-9.17-3.85-13.22-5.3,2-5.77,4.09-11.44,6.27-17.15,3.93,1.76,9.57,3.66,13.17,5.44C819.16,646.28,821.23,650.85,819.44,655.75Z"/><path class="cls-12" d="M545.82,766.68c-10.42-.33-30.69.36-42.85.37-3.15,0-5.4,2-5.38,4.86h0c0,3.37,1.3,6.16,5.54,7,19.68,3.88,40.67,7.77,60.71,11.54.71-6.87.94-13.65,1.87-20.57C557.12,769.17,556.24,767,545.82,766.68Z"/><path class="cls-13" d="M554.21,777.22h0c-5.29-.92-8.4-5-8-10.69.27-4.14,2.24-10.13,3-14.52l18.2,3.12c-1,4.37-1.66,10.51-2.55,14.56C563.61,775.23,559.5,778.13,554.21,777.22Z"/><path class="cls-3" d="M506.58,253.69a387.41,387.41,0,0,1,39.28,53.42c3.47,5.75,8.14,15.4,9.84,21.62,2.63,9.66,2.82,16.63-5.74,21.64-1.33.78-2.39.49-3.81.8,0,0,.33,0-.13,0a15.56,15.56,0,0,1-3.12-.32h-.09a21.3,21.3,0,0,1-6.34-2.89,65,65,0,0,1-14.32-14.3c-15.07-20.49-26.91-43.36-36.83-66.64C490.22,258.84,496.92,254.23,506.58,253.69Z"/><path class="cls-3" d="M628.43,366.46c-26-1-51.95-3.45-76.77-11.08-8.29-2.54-16.35-6.8-21.72-14,0,0,.16.25-.07-.13a19.81,19.81,0,0,1-1.34-2.79l0-.09a17,17,0,0,1-.82-6.78,6.88,6.88,0,0,1,.29-2.14c2.7-7.23,8.17-9.61,16.08-10.94a94.56,94.56,0,0,1,24.12-.21c20.79,3.32,46.33,6.49,63.79,15.32S643.66,362.25,628.43,366.46Z"/><path class="cls-3" d="M742.57,362.46l-.05,0a15.92,15.92,0,0,1-2.26.84,14,14,0,0,1-7.94.05,6.12,6.12,0,0,1-2.59-1.22c-5.32-4.88-6.6-9-4.39-16.79,2-7,7.13-15.14,11.79-21.65,15.14-21.12,30.64-42.09,45.35-63.56,9.81-.5,16.77,3.83,22,11.85-9.58,29.18-25.19,56.83-46.55,78.86A61.69,61.69,0,0,1,742.57,362.46Z"/><path class="cls-3" d="M757.16,350.49l0,.05A17.2,17.2,0,0,1,756,353a24.15,24.15,0,0,1-5.94,6.8,45,45,0,0,1-17.47,7.54c-22.14,3.36-49.55,3.94-70.26,1.61S644,346.4,654.26,336.13c23.52-8.42,47.48-9.29,72-8,8.29.44,18.15,1.7,25.35,5.14,4.41,2.1,5.5,4.81,6.4,8.77C758.72,345.17,757.79,347.61,757.16,350.49Z"/><path class="cls-4" d="M568.58,639.36h0C555.65,637,548.08,624,550.36,612c9.67-50.85,11.58-102,16.19-153.28,18.51,1.47,36.75,2.58,55.29,3.79-6.18,53.71-10,104.4-22.43,157.22C596,634.42,582.16,641.82,568.58,639.36Z"/><path class="cls-4" d="M578.11,581c-6.38-1-1.58-.2-1.58-.2-15.24,1.75-25.86,11-26,26-.64,50.45-12.59,99.5-13.36,148.15,14.11,2.65,28.25,5.25,42.27,7.28,4.08-52,18.33-103.86,21.34-156.61C601.66,589.23,585.35,582.19,578.11,581Z"/><path class="cls-4" d="M678.48,624.87h0c-12.38,4.2-24.62-2.71-29.11-15.41-19-53.77-30.29-100-34.74-157.1,18.35-2.4,36.47-4.86,54.91-6.93,3.77,54,16,96.56,26.55,148.32C699,608.13,691.47,620.45,678.48,624.87Z"/><path class="cls-4" d="M652.61,588.34c-4,4.94-1,1.26-1,1.26-6.22,13.81-3.66,27.91,9.68,35.07,45,24.14,82.45,33.83,130.87,47.35q6.87-20.34,13.52-40.5c-46.12-14.74-78.16-26.49-120.12-50.78C672.6,573.22,657.14,582.73,652.61,588.34Z"/><path class="cls-3" d="M566.3,458.74c4.57-29.13,9.63-109.1,39.93-123.73,17.37-8.39,53.79-7.16,70.91,11.09s5.74,93.84.14,118.92C640.22,463.82,603.82,461.49,566.3,458.74Z"/><path class="cls-14" d="M781.9,267.25c-1.34-7.49-1.17-7.42-.18-12.9s2.64-8.87,1.69-14.53,5-5.75,6.15-1.32,1,13.5,7.17,9.91,8.31-17.77,17.61-12.66c1-2.19,3.53-6.52,6.25-5.06s1,5.66.1,7.83c8.45-.55,0,11.4-1.23,13.43,1.31,2,4.4,1.12,2.08,5.32-3.7,6.71-15.34,15.1-22.18,18.81C788.24,282.11,783.24,274.75,781.9,267.25Z"/><path class="cls-15" d="M814.29,235.72c-1.81,6.36-8.17,12.05-12.32,16.78"/><path class="cls-15" d="M820.67,238.55a102.85,102.85,0,0,1-13.4,17.21"/><path class="cls-15" d="M819.4,252c-3,2.91-6,5.73-9,8.65"/><path class="cls-14" d="M506.54,257c-.81-6.45-1.09-6.57-3.61-10.94s-5.19-7.24-6.1-12.52-6.25-4.09-5.74.27,3.45,12.59-2.9,11.26-12.72-14.83-19.34-7.39c-1.33-1.66-5.05-5.41-7-3.24s1,5.73,2.45,7.5c-7.7,1.68,4.13,11.26,5.42,12.45-.76,2.26-3.16,2.29-.17,5.4,4.77,5,17.76,8.94,24.26,9.85C504.37,271.1,507.35,263.44,506.54,257Z"/><path class="cls-15" d="M468.89,237.63c3.58,5.52,10.77,9.28,16.06,12.74"/><path class="cls-15" d="M464.32,242a98.68,98.68,0,0,0,17.07,12.82"/><path class="cls-15" d="M469.79,254.43q5.13,2.85,10.36,5.54"/><path class="cls-13" d="M637.6,349.81c-7.92-.31-17.39-9.13-13.92-16.74a13.48,13.48,0,0,1,2.23-3.59v0a22.44,22.44,0,0,0,1.45-5.83c0-.06,0,0,0,0,7-6.45,14-12.65,21.06-19.07-.33,10.5,4,17.94,6.34,28S646.6,350.17,637.6,349.81Z"/><path class="cls-16" d="M644.86,318.84C641.12,327.7,634,329,626,329.59a27.2,27.2,0,0,0,1.41-5.93s0,.1,0,0C630.15,320.58,648.37,310.54,644.86,318.84Z"/><path class="cls-11" d="M668.78,281.55c-3.35,10.39-5.85,17.17-17.11,23.87-11.81,7-2.67-19.86,2.07-26C658.52,280.18,663.53,280.84,668.78,281.55Z"/><path class="cls-13" d="M624.26,275.74c-2,7.4-2.07,13-4.54,20.89-3.53,11.27-3.71,28.18,11.43,26.76,25.44-2.38,23.49-24.46,23.51-43.7C644.4,278.11,634.33,277.19,624.26,275.74Z"/><path class="cls-17" d="M582.33,372.92c3.37-11.31,7.18-23.21,15-32.19"/><path class="cls-17" d="M551.32,317l-8.64,13.17"/><path class="cls-17" d="M733.36,328.39q2.31,6.8,4.73,13.55"/><path class="cls-4" d="M590.53,517.82c16.25.74,32.49,1.58,48.76.88-5-16.23-8.74-32.85-12.75-49.35-7.5-1.49-15-3.12-22.48-4.7C599.52,482.36,595.36,500.18,590.53,517.82Z"/><path class="cls-17" d="M614.54,462.51c-2.07,10.46-4,21-5.87,31.45l13,2"/><path class="cls-13" d="M661.23,306.88a8.06,8.06,0,0,1-8.46,8.81,9.28,9.28,0,0,1-9.09-9.06,8.21,8.21,0,0,1,8.34-8.91A9.35,9.35,0,0,1,661.23,306.88Z"/><path class="cls-17" d="M574.68,458.9c-1.72,14.53-3.29,29.08-5.14,43.59-2.19,1.61-4.41,3.18-6.65,4.75"/><path class="cls-17" d="M666.11,467.36c-.69,15.18-1.2,30.4-1,45.6,2.73,1.53,5.45,3.07,8.2,4.59"/><path class="cls-11" d="M537.16,754.9c-.19-4.58.54-9.19,1-13.74q21,2.49,42.06,5.29c-.34,5.27-.75,10.52-.71,15.79C565.31,760.07,551.21,757.59,537.16,754.9Z"/><path class="cls-11" d="M776.92,668c5.1,1.3,10.26,2.45,15.29,4,4.57-13.48,9-27,13.56-40.49-5-1.46-10.14-2.73-15.21-4.07C785.74,640.85,781.33,654.42,776.92,668Z"/><path class="cls-17" d="M617.07,329.39c1.83,11.91,1.33,23.78,17.35,26.57s23.83-6.75,28-22.44"/><path class="cls-11" d="M654.57,286.53a8.21,8.21,0,0,0-9.9-5.6c-4.48,1-10.45,5.6-14.63,3.75s-4.43-5.33-5.81-9c4.24-14.21,15-20.41,29-17.08s19,12.14,14.71,25.33c-2.71,1.45-5.22,2.6-7.83,4C658.24,287.46,656.44,287,654.57,286.53Z"/><path class="cls-18" d="M641.26,296.75a1.7,1.7,0,0,1-1.73,1.82,1.83,1.83,0,0,1-1.87-1.79,1.71,1.71,0,0,1,1.71-1.85A1.86,1.86,0,0,1,641.26,296.75Z"/><path class="cls-18" d="M629.73,294.29a1.7,1.7,0,0,1-1.73,1.83,1.85,1.85,0,0,1-1.88-1.79,1.72,1.72,0,0,1,1.72-1.86A1.87,1.87,0,0,1,629.73,294.29Z"/><path class="cls-19" d="M633.25,296.45c-.08,3.4-.5,4.65-3.59,7s-.48,5.46,3.53,4.11"/><path class="cls-20" d="M625.39,312.24c2.33.37,4.67.75,7,1.15-.56,2-1.89,4.27-4.24,3.85S625.32,314.29,625.39,312.24Z"/><path class="cls-19" d="M640.22,289.41c2.44.2,4,1.75,5.27,3.73"/><path class="cls-19" d="M625.61,286.73a9.17,9.17,0,0,1,6.58,1"/><path class="cls-19" d="M652.6,305.32a5.71,5.71,0,0,1,4.94,4.1"/><path class="cls-11" d="M689.3,597.62C689.55,606.4,683.76,614,675,615s-15.72-5.31-16.59-14.13a15.45,15.45,0,0,1,14.3-17C681.57,583,689.06,588.84,689.3,597.62Z"/><path class="cls-11" d="M587.6,618.15a17,17,0,0,1-20.22,12.63c-9-2.14-14.15-9.89-11.89-18.9A17.1,17.1,0,0,1,575.25,599C584.42,600.51,589.76,609.19,587.6,618.15Z"/><path class="cls-17" d="M677.11,345.16c6.69,12.59,8.11,27.14,8.26,41.13"/><polygon class="cls-20" points="504.79 310.94 520.97 260.99 442.07 231.92 401.92 360.66 483.6 384.19 504.79 310.94"/><polygon class="cls-3" points="463.91 234.84 462.06 245.92 497.13 256.38 502.05 247.76 463.91 234.84"/><polygon class="cls-21" points="428.75 310.69 451.45 338.63 500.51 285.93 486.42 274.83 452.89 311.54 440.71 295.15 428.75 310.69"/></svg>